<svg width="20" height="22" viewBox="0 0 20 22" fill="none" xmlns="http://www.w3.org/2000/svg">
<path fill-rule="evenodd" clip-rule="evenodd" d="M11.5 8C12.0523 8 12.5 8.44771 12.5 9V10.5H14C14.5523 10.5 15 10.9477 15 11.5C15 12.0523 14.5523 12.5 14 12.5H12.5V14C12.5 14.5523 12.0523 15 11.5 15C10.9477 15 10.5 14.5523 10.5 14V12.5H9C8.44771 12.5 8 12.0523 8 11.5C8 10.9477 8.44771 10.5 9 10.5H10.5V9C10.5 8.44771 10.9477 8 11.5 8Z" fill="white"/>
<path fill-rule="evenodd" clip-rule="evenodd" d="M5.5 0C5.93043 0 6.31257 0.27543 6.44868 0.683772L7.41557 3.58443L10.3162 4.55132C10.7246 4.68743 11 5.06957 11 5.5C11 5.93043 10.7246 6.31257 10.3162 6.44868L7.41557 7.41557L6.44868 10.3162C6.31257 10.7246 5.93043 11 5.5 11C5.06957 11 4.68743 10.7246 4.55132 10.3162L3.58443 7.41557L0.683772 6.44868C0.27543 6.31257 0 5.93043 0 5.5C0 5.06957 0.27543 4.68743 0.683772 4.55132L3.58443 3.58443L4.55132 0.683772C4.68743 0.27543 5.06957 0 5.5 0ZM5.5 4.16228L5.32368 4.69123C5.22415 4.98983 4.98983 5.22415 4.69123 5.32368L4.16228 5.5L4.69123 5.67632C4.98983 5.77585 5.22415 6.01017 5.32368 6.30877L5.5 6.83772L5.67632 6.30877C5.77585 6.01017 6.01017 5.77585 6.30877 5.67632L6.83772 5.5L6.30877 5.32368C6.01017 5.22415 5.77585 4.98983 5.67632 4.69123L5.5 4.16228Z" fill="white"/>
<path fill-rule="evenodd" clip-rule="evenodd" d="M6.70711 16.2929C7.09763 16.6834 7.09763 17.3166 6.70711 17.7071L2.70711 21.7071C2.31658 22.0976 1.68342 22.0976 1.29289 21.7071C0.90237 21.3166 0.90237 20.6834 1.29289 20.2929L5.29289 16.2929C5.68342 15.9024 6.31658 15.9024 6.70711 16.2929Z" fill="white"/>
<path fill-rule="evenodd" clip-rule="evenodd" d="M12.02 3.95109C12.1298 3.40985 12.6577 3.06014 13.1989 3.17001C17.0792 3.95766 20 7.38661 20 11.5C20 16.1944 16.1944 20 11.5 20C7.79748 20 4.65031 17.6333 3.48392 14.3332C3.29987 13.8125 3.57279 13.2412 4.09351 13.0572C4.61423 12.8731 5.18555 13.146 5.3696 13.6668C6.26239 16.1927 8.67142 18 11.5 18C15.0898 18 18 15.0898 18 11.5C18 8.35651 15.7676 5.7322 12.8011 5.13004C12.2598 5.02017 11.9101 4.49234 12.02 3.95109Z" fill="white"/>
</svg>
