<svg width="21" height="23" viewBox="0 0 21 23" fill="none" xmlns="http://www.w3.org/2000/svg">
<path d="M12.0518 19.6826C12.227 19.1591 12.7937 18.8768 13.3174 19.0518C13.8408 19.227 14.1232 19.7938 13.9482 20.3174C13.7098 21.0309 13.3489 21.6832 12.8613 22.1709C12.3678 22.6645 11.7277 23 11 23C10.2723 23 9.63225 22.6645 9.13867 22.1709C8.65112 21.6832 8.29021 21.0309 8.05176 20.3174C7.87679 19.7937 8.15912 19.227 8.68262 19.0518C9.20625 18.8768 9.77304 19.1591 9.94824 19.6826C10.1161 20.1851 10.3387 20.5426 10.5527 20.7568C10.7611 20.9652 10.9176 21 11 21C11.0824 21 11.2389 20.9652 11.4473 20.7568C11.6613 20.5426 11.8839 20.1851 12.0518 19.6826ZM10.5 0C12.3687 1.29769e-05 14.1987 0.56093 15.582 1.60938C16.971 2.66207 17.8329 4.15804 17.833 5.7998C17.833 8.39756 18.5636 9.99208 19.2285 10.916C19.5652 11.3838 19.8955 11.6943 20.1299 11.8818C20.247 11.9755 20.3399 12.0388 20.3975 12.0752C20.4262 12.0933 20.4467 12.1041 20.4561 12.1094C20.4571 12.1099 20.4582 12.1109 20.459 12.1113L20.4531 12.1084C20.8649 12.3177 21.0796 12.7819 20.9727 13.2314C20.8653 13.6818 20.463 14 20 14H1C0.537012 14 0.134669 13.6818 0.0273438 13.2314C-0.0796232 12.7819 0.135095 12.3177 0.546875 12.1084L0.541016 12.1113C0.541799 12.1109 0.542898 12.1099 0.543945 12.1094C0.553325 12.1041 0.573828 12.0933 0.602539 12.0752C0.660111 12.0388 0.753003 11.9755 0.870117 11.8818C1.10451 11.6943 1.43483 11.3838 1.77148 10.916C2.43643 9.99207 3.16699 8.39753 3.16699 5.7998C3.16706 4.15803 4.029 2.66207 5.41797 1.60938C6.80134 0.560938 8.63131 0 10.5 0ZM10.5 2C9.00935 2 7.61805 2.45128 6.62598 3.20312C5.63962 3.95068 5.16706 4.89565 5.16699 5.7998C5.16699 8.73742 4.34863 10.7205 3.45312 12H17.5469C16.6514 10.7205 15.833 8.73744 15.833 5.7998C15.8329 4.89566 15.3604 3.95067 14.374 3.20312C13.382 2.45127 11.9906 2.00001 10.5 2Z" fill="white"/>
</svg>
